<svg viewBox="0 0 200 200" xmlns="http://www.w3.org/2000/svg">
  <!-- CPU Pins (Left) -->
  <rect x="20" y="50" width="15" height="4" fill="#1e3a8a" rx="1"/>
  <rect x="20" y="65" width="15" height="4" fill="#1e3a8a" rx="1"/>
  <rect x="20" y="80" width="15" height="4" fill="#1e3a8a" rx="1"/>
  <rect x="20" y="95" width="15" height="4" fill="#1e3a8a" rx="1"/>
  <rect x="20" y="110" width="15" height="4" fill="#1e3a8a" rx="1"/>
  <rect x="20" y="125" width="15" height="4" fill="#1e3a8a" rx="1"/>
  <rect x="20" y="140" width="15" height="4" fill="#1e3a8a" rx="1"/>
  
  <!-- CPU Pins (Right) -->
  <rect x="165" y="50" width="15" height="4" fill="#1e3a8a" rx="1"/>
  <rect x="165" y="65" width="15" height="4" fill="#1e3a8a" rx="1"/>
  <rect x="165" y="80" width="15" height="4" fill="#1e3a8a" rx="1"/>
  <rect x="165" y="95" width="15" height="4" fill="#1e3a8a" rx="1"/>
  <rect x="165" y="110" width="15" height="4" fill="#1e3a8a" rx="1"/>
  <rect x="165" y="125" width="15" height="4" fill="#1e3a8a" rx="1"/>
  <rect x="165" y="140" width="15" height="4" fill="#1e3a8a" rx="1"/>
  
  <!-- CPU Pins (Top) -->
  <rect x="50" y="20" width="4" height="15" fill="#1e3a8a" rx="1"/>
  <rect x="65" y="20" width="4" height="15" fill="#1e3a8a" rx="1"/>
  <rect x="80" y="20" width="4" height="15" fill="#1e3a8a" rx="1"/>
  <rect x="95" y="20" width="4" height="15" fill="#1e3a8a" rx="1"/>
  <rect x="110" y="20" width="4" height="15" fill="#1e3a8a" rx="1"/>
  <rect x="125" y="20" width="4" height="15" fill="#1e3a8a" rx="1"/>
  <rect x="140" y="20" width="4" height="15" fill="#1e3a8a" rx="1"/>
  
  <!-- CPU Pins (Bottom) -->
  <rect x="50" y="165" width="4" height="15" fill="#1e3a8a" rx="1"/>
  <rect x="65" y="165" width="4" height="15" fill="#1e3a8a" rx="1"/>
  <rect x="80" y="165" width="4" height="15" fill="#1e3a8a" rx="1"/>
  <rect x="95" y="165" width="4" height="15" fill="#1e3a8a" rx="1"/>
  <rect x="110" y="165" width="4" height="15" fill="#1e3a8a" rx="1"/>
  <rect x="125" y="165" width="4" height="15" fill="#1e3a8a" rx="1"/>
  <rect x="140" y="165" width="4" height="15" fill="#1e3a8a" rx="1"/>
  
  <!-- CPU Body - Outer -->
  <rect x="40" y="40" width="120" height="120" fill="#172554" rx="8"/>
  
  <!-- CPU Body - Inner chip -->
  <rect x="55" y="55" width="90" height="90" fill="#1e40af" rx="6"/>
  
  <!-- Circuit paths on chip -->
  <g stroke="#10b981" stroke-width="2" fill="none">
    <!-- Horizontal lines -->
    <line x1="65" y1="75" x2="135" y2="75"/>
    <line x1="65" y1="95" x2="135" y2="95"/>
    <line x1="65" y1="115" x2="135" y2="115"/>
    
    <!-- Vertical lines -->
    <line x1="75" y1="65" x2="75" y2="135"/>
    <line x1="100" y1="65" x2="100" y2="135"/>
    <line x1="125" y1="65" x2="125" y2="135"/>
  </g>
  
  <!-- Central core dots -->
  <circle cx="100" cy="85" r="3" fill="#34d399"/>
  <circle cx="100" cy="100" r="3" fill="#34d399"/>
  <circle cx="100" cy="115" r="3" fill="#34d399"/>
  
  <!-- Corner accent dots -->
  <circle cx="70" cy="70" r="2.5" fill="#6ee7b7"/>
  <circle cx="130" cy="70" r="2.5" fill="#6ee7b7"/>
  <circle cx="70" cy="130" r="2.5" fill="#6ee7b7"/>
  <circle cx="130" cy="130" r="2.5" fill="#6ee7b7"/>
  
  <!-- Subtle glow effect -->
  <defs>
    <radialGradient id="glow" cx="50%" cy="50%" r="50%">
      <stop offset="0%" style="stop-color:#10b981;stop-opacity:0.2" />
      <stop offset="100%" style="stop-color:#172554;stop-opacity:0" />
    </radialGradient>
  </defs>
  <circle cx="100" cy="100" r="60" fill="url(#glow)"/>
</svg>